<?xml version="1.0" encoding="utf-8"?>
<!-- Generator: Adobe Illustrator 23.0.0, SVG Export Plug-In . SVG Version: 6.00 Build 0)  -->
<svg version="1.1" id="Слой_1" xmlns="http://www.w3.org/2000/svg" xmlns:xlink="http://www.w3.org/1999/xlink" x="0px" y="0px"
	 viewBox="0 0 511 504" style="enable-background:new 0 0 511 504;" xml:space="preserve">
<style type="text/css">
	
		.st0{opacity:0.33;fill:none;stroke:url(#SVGID_1_);stroke-width:1.0221;stroke-linecap:round;stroke-linejoin:round;stroke-miterlimit:10;}
	
		.st1{opacity:0.33;fill:none;stroke:url(#SVGID_2_);stroke-width:1.0221;stroke-linecap:round;stroke-linejoin:round;stroke-miterlimit:10;}
	.st2{opacity:0.16;fill:url(#SVGID_3_);}
	.st3{fill:#4157FF;}
	.st4{fill:#CD714D;}
	.st5{fill:#BB2811;}
	.st6{fill:#D12811;}
	.st7{fill:#5A2618;}
	.st8{fill:#D13911;}
	.st9{fill:#003974;}
	.st10{fill:#4143FF;}
	.st11{fill:url(#SVGID_4_);}
	.st12{fill:url(#SVGID_5_);}
	.st13{fill:none;stroke:url(#SVGID_6_);stroke-width:1.0221;stroke-linecap:round;stroke-linejoin:round;stroke-miterlimit:10;}
	.st14{opacity:0.33;fill:url(#SVGID_7_);}
	
		.st15{opacity:0.81;fill:none;stroke:url(#SVGID_8_);stroke-width:0.7804;stroke-linecap:round;stroke-linejoin:round;stroke-miterlimit:10;}
	.st16{fill:none;stroke:url(#SVGID_9_);stroke-width:1.0221;stroke-miterlimit:10;}
	
		.st17{opacity:0.33;fill:none;stroke:url(#SVGID_10_);stroke-width:1.0221;stroke-linecap:round;stroke-linejoin:round;stroke-miterlimit:10;}
	
		.st18{opacity:0.33;fill:none;stroke:url(#SVGID_11_);stroke-width:1.0221;stroke-linecap:round;stroke-linejoin:round;stroke-miterlimit:10;}
	
		.st19{opacity:0.33;fill:none;stroke:url(#SVGID_12_);stroke-width:1.0221;stroke-linecap:round;stroke-linejoin:round;stroke-miterlimit:10;}
	.st20{fill:none;stroke:url(#SVGID_13_);stroke-width:1.0221;stroke-linecap:round;stroke-linejoin:round;stroke-miterlimit:10;}
	.st21{fill:none;stroke:url(#SVGID_14_);stroke-width:1.0221;stroke-linecap:round;stroke-linejoin:round;stroke-miterlimit:10;}
	.st22{fill:none;stroke:url(#SVGID_15_);stroke-width:1.0221;stroke-linecap:round;stroke-linejoin:round;stroke-miterlimit:10;}
	.st23{fill:none;stroke:url(#SVGID_16_);stroke-width:1.0221;stroke-linecap:round;stroke-linejoin:round;stroke-miterlimit:10;}
	.st24{fill:none;stroke:url(#SVGID_17_);stroke-width:1.0221;stroke-linecap:round;stroke-linejoin:round;stroke-miterlimit:10;}
	.st25{fill:none;stroke:url(#SVGID_18_);stroke-width:1.0221;stroke-linecap:round;stroke-linejoin:round;stroke-miterlimit:10;}
	.st26{fill:#FFFFFF;stroke:url(#SVGID_19_);stroke-width:0.9099;stroke-linecap:round;stroke-linejoin:round;stroke-miterlimit:10;}
	.st27{fill:url(#SVGID_20_);}
	.st28{fill:url(#SVGID_21_);}
	.st29{opacity:0.23;fill:#FF0000;}
	.st30{fill:none;stroke:url(#SVGID_22_);stroke-width:1.0221;stroke-linecap:round;stroke-linejoin:round;stroke-miterlimit:10;}
	.st31{fill:none;stroke:url(#SVGID_23_);stroke-width:1.0221;stroke-linecap:round;stroke-linejoin:round;stroke-miterlimit:10;}
	
		.st32{opacity:0.33;fill:none;stroke:url(#SVGID_24_);stroke-width:0.7804;stroke-linecap:round;stroke-linejoin:round;stroke-miterlimit:10;}
	
		.st33{opacity:0.33;fill:none;stroke:url(#SVGID_25_);stroke-width:0.7804;stroke-linecap:round;stroke-linejoin:round;stroke-miterlimit:10;}
	
		.st34{opacity:0.37;fill:none;stroke:url(#SVGID_26_);stroke-width:1.0221;stroke-linecap:round;stroke-linejoin:round;stroke-miterlimit:10;}
	.st35{fill:none;stroke:url(#SVGID_27_);stroke-width:1.0221;stroke-linecap:round;stroke-linejoin:round;stroke-miterlimit:10;}
	.st36{fill:none;stroke:url(#SVGID_28_);stroke-width:1.0221;stroke-linecap:round;stroke-linejoin:round;stroke-miterlimit:10;}
	.st37{fill:#BE5E48;}
	.st38{fill:#CA7048;}
	.st39{fill:#414CFF;}
	.st40{fill:#4175FF;}
	.st41{fill:#4196FF;}
	.st42{fill:#41D4FF;}
	.st43{fill:url(#SVGID_29_);}
	.st44{fill:#FFCC33;}
	.st45{fill:url(#SVGID_30_);}
	.st46{fill:url(#SVGID_31_);}
	.st47{fill:url(#SVGID_32_);}
	.st48{fill:url(#SVGID_33_);}
	.st49{fill:url(#SVGID_34_);}
	.st50{fill:url(#SVGID_35_);}
	.st51{fill:none;stroke:url(#SVGID_36_);stroke-width:1.0221;stroke-linecap:round;stroke-linejoin:round;stroke-miterlimit:10;}
	.st52{fill:none;stroke:url(#SVGID_37_);stroke-width:1.0221;stroke-linecap:round;stroke-linejoin:round;stroke-miterlimit:10;}
	.st53{opacity:0.16;fill:url(#SVGID_38_);}
	.st54{fill:none;stroke:#638EFF;stroke-width:0.7804;stroke-linecap:round;stroke-linejoin:round;stroke-miterlimit:10;}
	.st55{opacity:0.67;fill:url(#SVGID_39_);}
</style>
<g>
	<linearGradient id="SVGID_1_" gradientUnits="userSpaceOnUse" x1="68.7815" y1="239.2251" x2="399.8256" y2="239.2251">
		<stop  offset="0.4447" style="stop-color:#63A9FF"/>
		<stop  offset="0.9658" style="stop-color:#638EFF"/>
	</linearGradient>
	<polyline class="st0" points="139.97,299.1 69.29,271.64 399.31,179.35 	"/>
	<linearGradient id="SVGID_2_" gradientUnits="userSpaceOnUse" x1="183.786" y1="258.5545" x2="232.4681" y2="258.5545">
		<stop  offset="0.4447" style="stop-color:#63A9FF"/>
		<stop  offset="0.9658" style="stop-color:#638EFF"/>
	</linearGradient>
	<polyline class="st1" points="184.3,240.06 228.64,259.36 231.96,277.05 	"/>
	<linearGradient id="SVGID_3_" gradientUnits="userSpaceOnUse" x1="67.6231" y1="200.3368" x2="199.8531" y2="200.3368">
		<stop  offset="0.4447" style="stop-color:#63A9FF"/>
		<stop  offset="0.9658" style="stop-color:#638EFF"/>
	</linearGradient>
	<path class="st2" d="M148.91,180.71c-5.73,0.8-16.3-8.9-29.93-0.4c-11.72,7.32-11.15,11.9-32.41,7.64
		c-9.88-1.98-16.11,4.23-16.56,6.46s-10.24,5.58,13.36,12.03c20.72,5.66,31.44,5.5,38.56,17.52c7.12,12.02,77.92,7.87,77.92,7.87
		s-9.2-36.95-17.65-47.98C157.27,151.32,159.84,179.18,148.91,180.71z"/>
	<path class="st3" d="M194.62,191.78c-1.67-1.34-19.93-12.39-19.93-12.39s6.06,39.19,1.49,47.56c-4.57,8.37,20.38,7.82,20.38,7.82
		s-2.64-36.08-5.05-41.31"/>
	<g>
		<path class="st4" d="M230.29,145.29c0,0-2.43,1.06-3.25,1.94c-0.82,0.88,1.08,4.34,1.08,4.34s4.96,1.09,7.19,0.71
			c2.23-0.38,4.79-1.37,4.79-1.37s1.73-2.95,2.95-3.68c0.55-0.33,2.94-2.02,3.18-2.61c0.34-0.83-0.94-0.5-3.84-0.04
			c-2.9,0.46-6.73,1.08-6.73,1.08c-0.6-0.73,0.74-1.99,2.28-2.99c0.34-0.22-0.2-0.79-1.55-0.46
			C234.46,142.66,230.29,145.29,230.29,145.29z"/>
		<path class="st4" d="M186.34,108.23l4.53-2.94c0,0-0.82,7.12,3.09,12.78l-8.65,1.34l-0.86-7.06L186.34,108.23z"/>
		<path class="st5" d="M169.87,127.31c0,0-7.41,22.75-6.38,23.59s1.24,4.03,4.33,7.07c3.09,3.04,10.5,10.66,10.5,10.66l3.56-4.74
			c0,0-8.09-13.02-7.89-14.85c0.21-1.83,3.3-10.02,3.71-12C178.1,135.07,169.87,127.31,169.87,127.31z"/>
		<path class="st4" d="M184.49,88.83c0.9-0.67,9.58,1.54,10.35,10.19c0.77,8.65-3.55,12.5-6.18,10.88
			C186.03,108.29,181.4,91.15,184.49,88.83z"/>
		<path class="st6" d="M186.03,118.08c1.31-0.29,7.1-2.14,8.9-1.44c8.72,3.4,9.02,17.46,8.71,21.09
			c-0.31,3.63-4.48,10.58-2.78,15.21c1.7,4.63,1.39,17.5,1.39,17.5s-23.32,3.21-28.27,0.69c0,0,4.17-9.39,2.93-17.57
			c-1.24-8.19-5.25-25.46-5.25-25.46S178.16,119.83,186.03,118.08z"/>
		<path class="st7" d="M183.46,85.23c-0.48-0.05-16.28,0.98-16.12,9.47c0.15,8.5,2.16,12.81-2.78,15.21s-5.02,14.89,4.55,19.74
			c9.58,4.84,20.62,4.44,20.08-1.27c-0.54-5.72,0-10.3,4.77-10.3c4.37,0-10.4-19.47-8.86-22.12c1.54-2.65,6.92-3.55,6.92-3.55
			S196.02,86.5,183.46,85.23z"/>
		<path class="st8" d="M193.96,118.08c0,0,3.17-0.79,4.63,1.02c1.46,1.81,9.66,18.62,13.02,21.37c4.04,3.31,12.18,4.93,16.32,6.05
			c2.29,0.62,1.91,2.46,1.96,4.39c0.06,2.11-6.21,1.81-8.03,1.87c-3.6,0.13-10.78-1.94-13.9-3.73c-4.02-2.3-12.28-12.13-13.04-13.16
			C194.17,134.86,189.43,119.83,193.96,118.08z"/>
		<path class="st4" d="M193.93,216.57c-0.49,0.45-3.1,16.83-3.26,34.9v11.91h5.41l11.89-42.2
			C207.97,221.19,198.27,212.56,193.93,216.57z"/>
		<path class="st4" d="M180.51,215.5c-0.49,0.45-0.27,14.04-0.43,32.12l1.65,15.01h5.41l7.42-42.52
			C194.55,220.12,184.85,211.49,180.51,215.5z"/>
		<path class="st3" d="M176.28,163.9c0,0-6.01,8.95-2.3,24.13c3.71,15.17,16.28,46.57,15.14,48.63c-1.14,2.06,20.07,0.85,20.07,0.85
			s4.53-25.25,5.06-32.47c0.52-7.22-12-39.28-12-39.28C181.87,169.61,176.28,163.9,176.28,163.9z"/>
		<path class="st9" d="M207.2,263.39c-1.85,0.76-15.46,6.25-16.53,4.09c-1.06-2.16,0-6.88,0-6.88l6.52-1.17c0,0,1.05,1.35,6.14,2.27
			S207.2,263.39,207.2,263.39z"/>
		<path class="st9" d="M198.32,262.24c-1.85,0.76-15.46,6.25-16.53,4.09c-0.63-1.29-0.51-3.48-0.31-5.04
			c0.14-1.08,0.95-1.95,2.03-2.15l3.74-0.67c0.61-0.11,1.23,0.02,1.76,0.34c0.79,0.48,2.39,1.18,5.45,1.73
			C199.56,261.46,198.32,262.24,198.32,262.24z"/>
		<path class="st10" d="M175.02,190.47c0,0,17.22,11.2,17.01,17.98c-0.21,6.78,4.38,13.19,2.52,16.49
			c-1.85,3.3-3.88,12.77-3.88,12.77s-18.63-3.59-16.11-6.05C177.08,229.19,175.22,194.25,175.02,190.47z"/>
	</g>
	<g>
		
			<linearGradient id="SVGID_4_" gradientUnits="userSpaceOnUse" x1="362.9127" y1="51.1628" x2="443.4423" y2="51.1628" gradientTransform="matrix(1 3.054876e-03 -3.054895e-03 1 -0.1555 -7.7083)">
			<stop  offset="0.4447" style="stop-color:#A6D4FF"/>
			<stop  offset="0.9658" style="stop-color:#638EFF"/>
		</linearGradient>
		<path class="st11" d="M443.04,62.32c0.01-2.29,0.02-3.62,0.02-3.62s0.75-6.79-5.79-8.26s-65.26-23.09-65.26-23.09
			s-9.4-2.23-9.37,6.01C377.28,38.55,420.29,53.83,443.04,62.32z"/>
		
			<linearGradient id="SVGID_5_" gradientUnits="userSpaceOnUse" x1="365.437" y1="108.0273" x2="366.6863" y2="108.0273" gradientTransform="matrix(1 3.054876e-03 -3.054895e-03 1 -0.1555 -7.7083)">
			<stop  offset="0.4447" style="stop-color:#A6D4FF"/>
			<stop  offset="0.9658" style="stop-color:#638EFF"/>
		</linearGradient>
		<path class="st12" d="M364.95,100.87c0.37,0.39,0.78,0.77,1.25,1.14C365.78,101.63,365.37,101.25,364.95,100.87z"/>
	</g>
	<linearGradient id="SVGID_6_" gradientUnits="userSpaceOnUse" x1="168.6643" y1="274.8558" x2="399.8256" y2="274.8558">
		<stop  offset="0.4447" style="stop-color:#63A9FF"/>
		<stop  offset="0.9658" style="stop-color:#638EFF"/>
	</linearGradient>
	<path class="st13" d="M399.31,179.35c-2.34,1.26-230.14,134.35-230.14,134.35l122.08,56.66L399.31,179.35z"/>
	<linearGradient id="SVGID_7_" gradientUnits="userSpaceOnUse" x1="139.9698" y1="293.2552" x2="399.3145" y2="293.2552">
		<stop  offset="0.4447" style="stop-color:#63A9FF"/>
		<stop  offset="0.9658" style="stop-color:#638EFF"/>
	</linearGradient>
	<polygon class="st14" points="139.97,299.1 155.16,407.16 169.18,313.7 399.31,179.35 	"/>
	
		<linearGradient id="SVGID_8_" gradientUnits="userSpaceOnUse" x1="362.4268" y1="86.0006" x2="444.1114" y2="86.0006" gradientTransform="matrix(1 3.054876e-03 -3.054895e-03 1 -0.1555 -7.7083)">
		<stop  offset="0.4447" style="stop-color:#63A9FF"/>
		<stop  offset="0.9658" style="stop-color:#638EFF"/>
	</linearGradient>
	<path class="st15" d="M362.92,33.76l-0.17,56.39c0,0-2.63,8.79,5.81,13.18c8.44,4.39,63.42,26.88,63.42,26.88s9.85,6.31,10.46-4.91
		c0.63-11.59,0.91-66.6,0.91-66.6s0.75-6.79-5.79-8.26c-6.54-1.47-65.26-23.09-65.26-23.09S362.56,25.03,362.92,33.76z"/>
	<linearGradient id="SVGID_9_" gradientUnits="userSpaceOnUse" x1="154.4407" y1="361.0539" x2="228.9853" y2="361.0539">
		<stop  offset="0.4447" style="stop-color:#63A9FF"/>
		<stop  offset="0.9658" style="stop-color:#638EFF"/>
	</linearGradient>
	<polyline class="st16" points="228.64,341.3 155.16,407.16 169.18,313.7 	"/>
	<linearGradient id="SVGID_10_" gradientUnits="userSpaceOnUse" x1="114.2404" y1="283.9304" x2="177.8561" y2="283.9304">
		<stop  offset="0.4447" style="stop-color:#63A9FF"/>
		<stop  offset="0.9658" style="stop-color:#638EFF"/>
	</linearGradient>
	<polyline class="st17" points="114.75,258.93 172.51,284.07 177.35,308.93 	"/>
	<linearGradient id="SVGID_11_" gradientUnits="userSpaceOnUse" x1="247.8425" y1="234.4262" x2="282.5652" y2="234.4262">
		<stop  offset="0.4447" style="stop-color:#63A9FF"/>
		<stop  offset="0.9658" style="stop-color:#638EFF"/>
	</linearGradient>
	<polyline class="st18" points="248.35,221.05 279.58,234.64 282.05,247.81 	"/>
	<linearGradient id="SVGID_12_" gradientUnits="userSpaceOnUse" x1="313.0184" y1="210.2412" x2="334.7078" y2="210.2412">
		<stop  offset="0.4447" style="stop-color:#63A9FF"/>
		<stop  offset="0.9658" style="stop-color:#638EFF"/>
	</linearGradient>
	<polyline class="st19" points="313.53,203.12 331.2,210.8 334.2,217.37 	"/>
	<linearGradient id="SVGID_13_" gradientUnits="userSpaceOnUse" x1="195.4384" y1="321.5622" x2="305.3155" y2="321.5622">
		<stop  offset="0.4447" style="stop-color:#63A9FF"/>
		<stop  offset="0.9658" style="stop-color:#638EFF"/>
	</linearGradient>
	<line class="st20" x1="195.95" y1="298.6" x2="304.8" y2="344.53"/>
	<linearGradient id="SVGID_14_" gradientUnits="userSpaceOnUse" x1="246.6414" y1="285.2697" x2="328.6659" y2="285.2697">
		<stop  offset="0.4447" style="stop-color:#63A9FF"/>
		<stop  offset="0.9658" style="stop-color:#638EFF"/>
	</linearGradient>
	<line class="st21" x1="247.15" y1="268.18" x2="328.15" y2="302.36"/>
	<linearGradient id="SVGID_15_" gradientUnits="userSpaceOnUse" x1="293.4978" y1="253.3099" x2="350.8684" y2="253.3099">
		<stop  offset="0.4447" style="stop-color:#63A9FF"/>
		<stop  offset="0.9658" style="stop-color:#638EFF"/>
	</linearGradient>
	<line class="st22" x1="294.01" y1="241.42" x2="350.36" y2="265.2"/>
	<linearGradient id="SVGID_16_" gradientUnits="userSpaceOnUse" x1="339.5851" y1="220.5715" x2="372.6785" y2="220.5715">
		<stop  offset="0.4447" style="stop-color:#63A9FF"/>
		<stop  offset="0.9658" style="stop-color:#638EFF"/>
	</linearGradient>
	<line class="st23" x1="340.1" y1="213.8" x2="372.17" y2="227.34"/>
	<linearGradient id="SVGID_17_" gradientUnits="userSpaceOnUse" x1="425.2098" y1="221.3389" x2="425.2098" y2="221.3389">
		<stop  offset="0.4447" style="stop-color:#63A9FF"/>
		<stop  offset="0.9658" style="stop-color:#638EFF"/>
	</linearGradient>
	<path class="st24" d="M425.21,221.34"/>
	<linearGradient id="SVGID_18_" gradientUnits="userSpaceOnUse" x1="390.9521" y1="206.8833" x2="390.9521" y2="206.8833">
		<stop  offset="0.4447" style="stop-color:#63A9FF"/>
		<stop  offset="0.9658" style="stop-color:#638EFF"/>
	</linearGradient>
	<path class="st25" d="M390.95,206.88"/>
	<linearGradient id="SVGID_19_" gradientUnits="userSpaceOnUse" x1="293.6429" y1="137.6157" x2="400.1492" y2="137.6157">
		<stop  offset="0.4447" style="stop-color:#63A9FF"/>
		<stop  offset="0.9658" style="stop-color:#638EFF"/>
	</linearGradient>
	<path class="st26" d="M294.22,77.84l0,73.85c0.5,1.85-2.83,13.7,7.66,17.24c11.81,3.99,83.17,34.95,83.17,34.95
		s12.92,8.22,13.68-6.47c0.78-15.18,0.93-87.23,0.93-87.23s0.95-8.89-7.62-10.8S306.47,69.4,306.47,69.4S293.73,66.41,294.22,77.84z
		"/>
	<g>
		<linearGradient id="SVGID_20_" gradientUnits="userSpaceOnUse" x1="294.2195" y1="91.9852" x2="399.6942" y2="91.9852">
			<stop  offset="0.4447" style="stop-color:#63A9FF"/>
			<stop  offset="0.9658" style="stop-color:#638EFF"/>
		</linearGradient>
		<path class="st27" d="M399.65,114.92c0.01-2.99,0.01-4.74,0.01-4.74s0.95-8.89-7.62-10.8S306.47,69.4,306.47,69.4
			s-12.33-2.89-12.25,7.91C313.42,84.05,369.82,103.9,399.65,114.92z"/>
		<linearGradient id="SVGID_21_" gradientUnits="userSpaceOnUse" x1="297.5257" y1="166.4644" x2="299.1621" y2="166.4644">
			<stop  offset="0.4447" style="stop-color:#63A9FF"/>
			<stop  offset="0.9658" style="stop-color:#638EFF"/>
		</linearGradient>
		<path class="st28" d="M297.53,165.72c0.49,0.51,1.03,1.01,1.64,1.49C298.61,166.71,298.07,166.22,297.53,165.72z"/>
	</g>
	<polygon class="st29" points="294.94,123.98 295.53,124.19 399.24,161.07 398.65,180.53 294.73,140.64 	"/>
	<linearGradient id="SVGID_22_" gradientUnits="userSpaceOnUse" x1="208.223" y1="75.536" x2="238.2927" y2="75.536">
		<stop  offset="0.4447" style="stop-color:#63A9FF"/>
		<stop  offset="0.9658" style="stop-color:#638EFF"/>
	</linearGradient>
	<path class="st30" d="M208.73,67.95c0,0,15.7,0.71,14.01,15.18c0,0-1.69-13.06,15.04-15.18"/>
	<linearGradient id="SVGID_23_" gradientUnits="userSpaceOnUse" x1="241.4914" y1="80.8618" x2="262.1232" y2="80.8618">
		<stop  offset="0.4447" style="stop-color:#63A9FF"/>
		<stop  offset="0.9658" style="stop-color:#638EFF"/>
	</linearGradient>
	<path class="st31" d="M242,76.5c0,0,10.18-0.55,10.63,8.72c0,0-0.49-8.73,8.98-8.73"/>
	<linearGradient id="SVGID_24_" gradientUnits="userSpaceOnUse" x1="368.3447" y1="295.3977" x2="478.9783" y2="295.3977">
		<stop  offset="0.4447" style="stop-color:#63A9FF"/>
		<stop  offset="0.9658" style="stop-color:#638EFF"/>
	</linearGradient>
	<path class="st32" d="M368.73,258.93c1.95-3.55,34.79-1.8,33.85,13.39c-0.94,15.19,5.29,13.64,15.61,12.95
		c10.32-0.69,18.45-4.37,24.9,7.99c6.45,12.36,9.95,23.68,22.22,19.48s15.7,15.25,11.68,19.16c-2.61,2.55-11.68,1.13-11.68,1.13"/>
	<linearGradient id="SVGID_25_" gradientUnits="userSpaceOnUse" x1="1.1098" y1="343.2469" x2="126.3301" y2="343.2469">
		<stop  offset="0.4447" style="stop-color:#63A9FF"/>
		<stop  offset="0.9658" style="stop-color:#638EFF"/>
	</linearGradient>
	<path class="st33" d="M125.94,312.73c-6.43-5.07-33.29-5.92-35.63,3.83s-11.1,22.6-18.11,18.51s-14.6-8.03-22.78,4.45
		c-8.18,12.49-19.28,13.07-26.28,11.32c-7.01-1.75-20.44,7.01-21.61,10.51c-1.17,3.5,39.72,16.09,39.72,16.09"/>
	<linearGradient id="SVGID_26_" gradientUnits="userSpaceOnUse" x1="297.5706" y1="409.901" x2="422.4145" y2="409.901">
		<stop  offset="0.4447" style="stop-color:#63A9FF"/>
		<stop  offset="0.9658" style="stop-color:#638EFF"/>
	</linearGradient>
	<path class="st34" d="M298.08,361.07c0,0,33.44-14.38,36.83,8.4c3.39,22.78,0.85,27.45,15.84,23.95c15-3.5,35.55,2.92,36.66,18.11
		c1.11,15.19,2.21,25.39,15.33,23.06c13.11-2.34,23.32,21.92,17.48,27.76c-5.78,5.78-69.47-18.98-69.47-18.98"/>
	<linearGradient id="SVGID_27_" gradientUnits="userSpaceOnUse" x1="231.7767" y1="442.0433" x2="328.0711" y2="442.0433">
		<stop  offset="0.4447" style="stop-color:#63A9FF"/>
		<stop  offset="0.9658" style="stop-color:#638EFF"/>
	</linearGradient>
	<path class="st35" d="M232.29,409.45c1.7-2.34,34.05-6.92,33.94,11.18c-0.11,18.11-4.04,21.61,11.94,18.69
		c15.98-2.92,31.84-2.34,33.55,15.19c1.71,17.52,10.64,23.45,15.84,22.28"/>
	<linearGradient id="SVGID_28_" gradientUnits="userSpaceOnUse" x1="175.5435" y1="424.9958" x2="226.0009" y2="424.9958">
		<stop  offset="0.4447" style="stop-color:#63A9FF"/>
		<stop  offset="0.9658" style="stop-color:#638EFF"/>
	</linearGradient>
	<path class="st36" d="M225.49,429.48c0,0-7.59-10.51-23.36-8.76c-15.77,1.75-23.52,12.07-26.07,4.28"/>
	<g>
		<polygon class="st37" points="220.32,231.91 223.09,239.96 208.13,239.18 209.05,226.96 		"/>
		<g>
			<path class="st38" d="M201.05,291.6c0.14-0.3,9.11-2.6,10.53-2.98s5.6,1.22,5.6,1.22s1.17,0.72-0.33,0.9s-3.93,0.18-4.35,0.34
				c-0.42,0.17-2.17,1.83-2.17,1.83c0.11,0.55,1.09,0,2.26,0c1.04,0,3.01,0,3.01,0s0,0.68-1.34,1.09c-1.34,0.42-6.6,1.63-8.19,1.61
				S199.55,294.77,201.05,291.6z"/>
			<path class="st39" d="M298.46,274.78c-0.39,0.25,3.46,1.86,4.43,1.82c2.75-0.11,1.64-0.48,10.82-1.64
				c2.36-0.3,3.97-4.33,2.59-4.51c-6.4-0.81-15.9-0.58-15.9-0.58l-0.43-0.08C299.98,269.8,301.89,272.64,298.46,274.78z"/>
			<g>
				<path class="st40" d="M261.77,258.12c0.8-1.12,3.95-2.18,8.2-2.18s38.95,17.26,38.95,17.26s-23.11-0.95-27.13-0.71
					s-27.66,8.33-35.94,9.72s-12.92-0.18-10.29-2.04C238.18,278.3,261.77,258.12,261.77,258.12z"/>
				<path class="st38" d="M219.14,212.43c0,0,8.04,10.4,6.86,16.79c-1.18,6.38-11.59,2.6-11.59,2.6s-3.55-0.71-1.89-4.49
					s-0.91-5.63-0.44-7.99C212.55,216.97,219.14,212.43,219.14,212.43z"/>
				<path class="st9" d="M203.29,214.32c0,0-4.69,4.6-0.9,10.98c3.78,6.38,8.34,8.16,9.68,7.62c3.26-1.29-0.81-2.76,0.88-6.78
					c1.69-4.03-1.87-3.27,0.27-6.63c2.14-3.35,5.91-7.09,5.91-7.09S216.6,202.32,203.29,214.32z"/>
				<path class="st41" d="M271.9,263.45c-7.46,1.16-28.17,10.92-28.17,10.92l-24.63,13.26c-0.6-1.4,3.41,8.91,10.29,10.91
					c16.82,4.89,37.28-16.12,40.59-18.96s40.67-0.47,40.67-0.47l3.78-2.8l-3.78-2.4C310.64,273.9,282.27,261.85,271.9,263.45z"/>
				<path class="st42" d="M208.42,249.43c-1.18,0.95-9.7,20.81-9.7,20.81l7.1,22.93c0,0,0.42,1.63-3.2,1.63
					c-4.73,0-15.01-14.61-16.19-21.49c-1.32-7.7,11.42-37.34,16-36.52S208.42,249.43,208.42,249.43z"/>
				<path class="st42" d="M198.09,241.28c0,0,4.84-9.76,12.28-6.6c3.81,1.62,11.1,4.48,13.96,4.36
					c10.11-0.4,23.88,16.18,23.88,16.18s12.77-8.25,16.31-9.21c3.55-0.96,4.02,2.35,3.07,3.53c-0.95,1.18-13.48,21.99-20.81,22.23
					c0,0,0.19,1.25,0.26,3.1c0.18,4.64-3.71,8.42-9.96,10.27c-8.75,2.59-19.25,6.44-21.61,1.46
					C213.12,281.63,199.75,253.1,198.09,241.28z"/>
			</g>
			<linearGradient id="SVGID_29_" gradientUnits="userSpaceOnUse" x1="224.6331" y1="270.876" x2="247.2845" y2="264.2948">
				<stop  offset="0.3428" style="stop-color:#41D4FF"/>
				<stop  offset="0.7183" style="stop-color:#63A9FF"/>
				<stop  offset="0.9658" style="stop-color:#638EFF"/>
			</linearGradient>
			<path class="st43" d="M247.95,272.44l-27.63-18.74l7.73,34.1C228.04,287.81,249.85,285.29,247.95,272.44z"/>
			<path class="st38" d="M263.66,246.71c0,0,0.79-3.62,0.97-4.88c0.18-1.26,3.61-4.8,3.61-4.8s1.12,0.23-0.55,3.66
				c-0.45,0.93,3.76-1.98,4.44-3.22c0.69-1.24,1.26-2.61,1.26-2.61s1.99-2.19,1.83-1.06c-0.69,4.92-0.18,5.35-0.18,5.81
				s-1.28,7.73-7.9,8.4C266.21,248.09,263.66,246.71,263.66,246.71z"/>
			<path class="st3" d="M310.64,279.11c-0.3,0.35,3.85,0.76,4.77,0.46c1.65-0.55,2.13-2.48,3.86-3.06c2.32-0.77,2.91-0.93,5.64-2.55
				c2.54-1.51,0.48-3.78-0.89-3.54c-6.35,1.09-14.1,2.58-14.1,2.58l0.72,0.9C310.64,273.9,313.3,276.06,310.64,279.11z"/>
		</g>
	</g>
	<g>
		<g>
			<path class="st44" d="M312.49,98.31c0.12-1,0.25-1.99,0.37-3c0.21-0.24,0.43-0.3,0.73-0.19c3.97,1.47,7.91,2.9,11.8,4.33
				c0.47,0.17,0.59,0.46,0.5,1.11c-0.07,0.54-0.15,1.08-0.23,1.61c-0.13,0.88-0.27,1-0.91,0.77c-0.87-0.31-1.73-0.63-2.63-0.95
				c0.09,0.6,0.2,1.12,0.25,1.65c0.03,0.28,0.1,0.39,0.29,0.45c0.66,0.22,1.31,0.46,1.96,0.7c0.46,0.17,0.59,0.47,0.51,1.1
				c-0.07,0.53-0.15,1.06-0.23,1.59c-0.13,0.88-0.26,1-0.9,0.77c-0.61-0.21-1.22-0.43-1.82-0.64c-1.1,4.17-3.26,5.83-6.51,5.12
				c0.09,0.17,0.14,0.27,0.19,0.37c1.57,2.98,3.12,5.94,4.65,8.85c0.17,0.31,0.32,0.62,0.14,0.98c-0.17,0.35-0.42,0.27-0.68,0.18
				c-0.94-0.32-1.87-0.64-2.82-0.93c-0.31-0.1-0.52-0.3-0.71-0.66c-1.36-2.57-2.75-5.16-4.15-7.79c-0.47-0.89-0.93-1.81-1.39-2.72
				c0.13-1.09,0.27-2.19,0.41-3.29c0.19-0.35,0.44-0.38,0.76-0.27c1.14,0.41,2.28,0.82,3.42,1.19c0.92,0.3,1.78,0.15,2.48-0.67
				c0.35-0.41,0.63-0.91,0.75-1.6c-0.18-0.06-0.31-0.11-0.44-0.16c-1.93-0.68-3.87-1.37-5.82-2.05c-0.3-0.1-0.52-0.27-0.63-0.68
				c0.11-0.88,0.22-1.76,0.33-2.64c0.19-0.35,0.45-0.38,0.77-0.27c1.8,0.66,3.59,1.29,5.37,1.93c0.12,0.04,0.23,0.08,0.43,0.15
				c-0.49-1.26-1.17-1.98-2.03-2.32c-1.18-0.46-2.37-0.88-3.57-1.3C312.82,98.97,312.59,98.76,312.49,98.31z"/>
		</g>
		<g>
			<linearGradient id="SVGID_30_" gradientUnits="userSpaceOnUse" x1="328.9886" y1="112.5913" x2="333.1238" y2="112.5913">
				<stop  offset="0.4447" style="stop-color:#63A9FF"/>
				<stop  offset="0.9658" style="stop-color:#638EFF"/>
			</linearGradient>
			<path class="st45" d="M331,108.8l-1.65-0.06l-0.36-2.34l2.73-0.08l1.4,0.5l-0.42,12.05l-2-0.68L331,108.8z"/>
			<linearGradient id="SVGID_31_" gradientUnits="userSpaceOnUse" x1="338.3866" y1="115.7569" x2="345.5267" y2="115.7569">
				<stop  offset="0.4447" style="stop-color:#63A9FF"/>
				<stop  offset="0.9658" style="stop-color:#638EFF"/>
			</linearGradient>
			<path class="st46" d="M338.39,118.97l1.45-1.22c0.58,1.12,1.2,1.84,2.12,2.16c0.75,0.26,1.3-0.11,1.35-1.01
				c0.05-0.95-0.58-1.72-1.69-2.1l-0.83-0.29l-0.24-1.76l2.31-2.08l-3.59-1.27l0.1-2.26l6.17,2.2l-0.1,1.97l-2.43,2.05
				c1.21,0.7,2.37,1.96,2.25,4.16c-0.12,2.19-1.42,3.37-3.42,2.68C340.2,121.63,339.11,120.42,338.39,118.97z"/>
			<linearGradient id="SVGID_32_" gradientUnits="userSpaceOnUse" x1="346.7761" y1="119.1146" x2="354.6928" y2="119.1146">
				<stop  offset="0.4447" style="stop-color:#63A9FF"/>
				<stop  offset="0.9658" style="stop-color:#638EFF"/>
			</linearGradient>
			<path class="st47" d="M346.79,117.79c0.19-3.4,1.96-5.51,4.34-4.66c2.35,0.84,3.76,4.02,3.54,7.41
				c-0.22,3.32-1.95,5.37-4.29,4.57C348.02,124.31,346.61,121.19,346.79,117.79z M352.68,119.85c0.13-2.1-0.55-3.98-1.72-4.39
				c-1.17-0.42-2.03,0.87-2.15,3.04c-0.12,2.12,0.56,3.95,1.73,4.36C351.71,123.26,352.55,121.97,352.68,119.85z"/>
			<linearGradient id="SVGID_33_" gradientUnits="userSpaceOnUse" x1="359.7247" y1="123.6037" x2="367.4165" y2="123.6037">
				<stop  offset="0.4447" style="stop-color:#63A9FF"/>
				<stop  offset="0.9658" style="stop-color:#638EFF"/>
			</linearGradient>
			<path class="st48" d="M359.75,122.32c0.24-3.33,2.01-5.39,4.31-4.57c2.28,0.81,3.59,3.92,3.31,7.23c-0.28,3.25-2,5.26-4.27,4.48
				C360.83,128.69,359.51,125.65,359.75,122.32z M365.46,124.31c0.17-2.06-0.46-3.89-1.6-4.29c-1.13-0.4-1.99,0.86-2.16,2.98
				c-0.16,2.07,0.47,3.86,1.61,4.25C364.45,127.65,365.29,126.39,365.46,124.31z"/>
			<linearGradient id="SVGID_34_" gradientUnits="userSpaceOnUse" x1="368.649" y1="126.6987" x2="376.192" y2="126.6987">
				<stop  offset="0.4447" style="stop-color:#63A9FF"/>
				<stop  offset="0.9658" style="stop-color:#638EFF"/>
			</linearGradient>
			<path class="st49" d="M368.69,125.44c0.28-3.27,2.04-5.31,4.29-4.51c2.23,0.8,3.48,3.85,3.16,7.11c-0.31,3.2-2.03,5.18-4.25,4.42
				C369.66,131.71,368.4,128.72,368.69,125.44z M374.26,127.39c0.19-2.02-0.41-3.82-1.51-4.22c-1.11-0.39-1.97,0.85-2.16,2.93
				c-0.18,2.04,0.41,3.8,1.52,4.18C373.23,130.68,374.07,129.44,374.26,127.39z"/>
			<linearGradient id="SVGID_35_" gradientUnits="userSpaceOnUse" x1="377.3718" y1="129.7247" x2="384.774" y2="129.7247">
				<stop  offset="0.4447" style="stop-color:#63A9FF"/>
				<stop  offset="0.9658" style="stop-color:#638EFF"/>
			</linearGradient>
			<path class="st50" d="M377.42,128.5c0.32-3.22,2.07-5.23,4.28-4.44c2.18,0.78,3.37,3.78,3.01,6.99
				c-0.35,3.15-2.06,5.11-4.23,4.36C378.3,134.66,377.1,131.72,377.42,128.5z M382.87,130.4c0.21-1.99-0.35-3.76-1.43-4.15
				c-1.08-0.38-1.94,0.84-2.15,2.89c-0.21,2.01,0.36,3.74,1.44,4.11C381.81,133.64,382.66,132.42,382.87,130.4z"/>
		</g>
	</g>
	<polygon class="st3" points="291.99,77.21 291.99,96.68 304.25,100.3 304.25,81.53 311,83.72 298.8,58.75 285.69,74.9 	"/>
	<linearGradient id="SVGID_36_" gradientUnits="userSpaceOnUse" x1="305.9952" y1="169.2191" x2="371.8953" y2="169.2191">
		<stop  offset="0.4447" style="stop-color:#63A9FF"/>
		<stop  offset="0.9658" style="stop-color:#638EFF"/>
	</linearGradient>
	<line class="st51" x1="306.51" y1="155.67" x2="371.38" y2="182.77"/>
	<linearGradient id="SVGID_37_" gradientUnits="userSpaceOnUse" x1="307.6688" y1="167.4245" x2="334.0484" y2="167.4245">
		<stop  offset="0.4447" style="stop-color:#63A9FF"/>
		<stop  offset="0.9658" style="stop-color:#638EFF"/>
	</linearGradient>
	<line class="st52" x1="308.18" y1="161.95" x2="333.54" y2="172.9"/>
	<linearGradient id="SVGID_38_" gradientUnits="userSpaceOnUse" x1="364.1996" y1="389.3411" x2="509.5" y2="389.3411">
		<stop  offset="0.4447" style="stop-color:#63A9FF"/>
		<stop  offset="0.9658" style="stop-color:#638EFF"/>
	</linearGradient>
	<path class="st53" d="M375.29,358.99c-2.36-0.58-16.69,2.67-8.68,7.01c8.01,4.34,51.08,22.7,52.09,22.37
		c1-0.33,64.03,32.83,89.48,39.73c7.63,2.07-19.89-40.21-28.38-44.55c-8.78-4.48-14.72,10.68-17.36,1.81
		c-5.68-19.03-8.68-38.06-21.7-33.39S425.21,366.14,421.9,363c-8.12-7.71-8.64-17.03-22.66-10.02
		C385.22,359.99,388.98,362.33,375.29,358.99z"/>
	<polyline class="st54" points="378.9,78.44 377.65,77.99 377.65,71.39 419.53,86.35 419.53,93.03 416.42,92.03 	"/>
	<path class="st54" d="M392.15,76.5l-10.07,3.64c0,0,4.89-0.3,3.81,2.67l11.27,4.64c0,0,2.95-2.75,5.68-0.27l7.68-3.76"/>
	<polygon class="st54" points="371.59,81.29 400.83,91.86 415.65,84.97 387.75,75 	"/>
	<linearGradient id="SVGID_39_" gradientUnits="userSpaceOnUse" x1="377.6508" y1="64.8505" x2="421.7584" y2="64.8505">
		<stop  offset="0.4447" style="stop-color:#63A9FF"/>
		<stop  offset="0.9658" style="stop-color:#638EFF"/>
	</linearGradient>
	<polygon class="st55" points="377.65,44.7 377.65,69.05 421.76,85 421.76,59.85 	"/>
	<polyline class="st54" points="372.42,84.46 401.25,95.32 418.7,86.72 	"/>
	<polyline class="st54" points="372.04,87.46 401.46,98.49 419.53,89.89 	"/>
</g>
</svg>
